<svg xmlns="http://www.w3.org/2000/svg" version="1.1" xmlns:xlink="http://www.w3.org/1999/xlink" xmlns:svgjs="http://svgjs.dev/svgjs" width="2000" height="1783" viewBox="0 0 2000 1783"><g transform="matrix(1,0,0,1,-1.1209105403067952,0.7218623481780924)"><svg viewBox="0 0 277 247" data-background-color="#f9e17e" preserveAspectRatio="xMidYMid meet" height="1783" width="2000" xmlns="http://www.w3.org/2000/svg" xmlns:xlink="http://www.w3.org/1999/xlink"><g id="tight-bounds" transform="matrix(1,0,0,1,0.15524610983248976,-0.09999999999999432)"><svg viewBox="0 0 276.689505435295 247.2" height="247.2" width="276.689505435295"><g><svg viewBox="0 0 395.52 353.3655671044759" height="247.2" width="276.689505435295"><g transform="matrix(1,0,0,1,0,256.36310042208436)"><svg viewBox="0 0 395.52 97.00246668239151" height="97.00246668239151" width="395.52"><g><svg viewBox="0 0 395.52 97.00246668239151" height="97.00246668239151" width="395.52"><g><svg viewBox="0 0 395.52 55.49572212065814" height="55.49572212065814" width="395.52"><g transform="matrix(1,0,0,1,0,0)"><svg width="395.52" viewBox="1.7599999904632568 -29.540000915527344 217.1699981689453 29.98000144958496" height="55.49572212065814" data-palette-color="#454545"><g class="undefined-text-0" data-fill-palette-color="primary" id="text-0"><path d="M26.95-7.37L24.8 0.29Q23.49 0.15 21.78 0.07 20.07 0 18.7 0L18.7 0 1.9 0 1.76-2.25 4.83-2.98Q4.93-3.22 5-4.2 5.08-5.18 5.13-6.76 5.18-8.35 5.18-10.4L5.18-10.4 5.18-18.21Q5.18-20.31 5.13-21.92 5.08-23.54 5-24.51 4.93-25.49 4.83-25.68L4.83-25.68 1.76-26.42 1.9-28.66 17.19-28.66Q18.07-28.66 19.26-28.69 20.46-28.71 21.66-28.78 22.85-28.86 23.78-28.91L23.78-28.91 24.95-21.92 22.31-21.58 20.56-25.78Q19.97-25.88 19.48-25.93 18.99-25.98 18.41-25.98L18.41-25.98 14.16-25.98Q13.23-25.98 12.43-25.95 11.62-25.93 11.04-25.83L11.04-25.83Q11.04-25.54 11.01-24.71 10.99-23.88 10.96-22.66 10.94-21.44 10.94-19.97L10.94-19.97 10.94-8.79Q10.94-7.37 10.96-6.23 10.99-5.08 11.01-4.27 11.04-3.47 11.04-3.08L11.04-3.08Q11.87-2.98 12.74-2.93 13.62-2.88 14.94-2.88L14.94-2.88 18.21-2.88Q19.43-2.88 20.07-2.91 20.7-2.93 21.02-2.98 21.34-3.03 21.68-3.08L21.68-3.08 24.37-7.86 26.95-7.37ZM21.34-9.86L18.8-9.86 18.31-13.13Q17.97-13.18 17.29-13.23 16.6-13.28 15.67-13.28L15.67-13.28 12.79-13.28Q12.01-13.28 11.25-13.23 10.5-13.18 9.96-13.13L9.96-13.13 9.96-16.31Q10.5-16.26 11.25-16.24 12.01-16.21 12.79-16.21L12.79-16.21 15.67-16.21Q16.6-16.21 17.29-16.24 17.97-16.26 18.31-16.26L18.31-16.26 18.8-19.58 21.34-19.58 21.34-9.86ZM36.91 0L27.93 0 27.78-2.25 30.27-2.98 40.23-27.44 43.89-29.54 54.98-2.98 57.47-2.25 57.32 0 45.31 0 45.16-2.25 48.24-2.98 45.51-9.62 44.97-11.23 39.94-23.29 41.26-23.24 36.86-11.33 36.37-9.86 33.98-2.98 37.06-2.25 36.91 0ZM35.35-8.54L35.35-8.54 35.35-11.62Q36.28-11.57 37.62-11.5 38.96-11.43 41.06-11.43L41.06-11.43Q43.11-11.43 44.5-11.5 45.9-11.57 46.77-11.62L46.77-11.62 46.77-8.59Q45.6-8.59 44.21-8.64 42.82-8.69 41.06-8.69L41.06-8.69Q39.3-8.69 37.94-8.64 36.57-8.59 35.35-8.54ZM68.31 0.44L68.31 0.44Q66.21 0.44 63.81-0.12 61.42-0.68 59.76-1.61L59.76-1.61 59.52-8.54 62.3-8.74 63.91-3.96Q64.99-3.22 66.35-2.86 67.72-2.49 68.99-2.49L68.99-2.49Q71.28-2.49 72.53-3.49 73.77-4.49 73.77-6.2L73.77-6.2Q73.77-7.91 72.75-8.98 71.72-10.06 70.11-10.84 68.5-11.62 66.69-12.35 64.89-13.09 63.28-14.11 61.66-15.14 60.64-16.7 59.61-18.26 59.61-20.65L59.61-20.65Q59.61-23.19 61.05-25.12 62.5-27.05 65.08-28.13 67.67-29.2 71.09-29.2L71.09-29.2Q72.26-29.2 73.53-29.05 74.8-28.91 75.97-28.61 77.14-28.32 78.02-27.93L78.02-27.93 78.51-21.14 75.73-20.95 74.21-25.49Q72.65-26.37 70.6-26.37L70.6-26.37Q68.4-26.37 67.06-25.29 65.72-24.22 65.72-22.36L65.72-22.36Q65.72-20.7 66.74-19.6 67.77-18.51 69.4-17.7 71.04-16.89 72.87-16.14 74.7-15.38 76.34-14.38 77.97-13.38 79-11.87 80.02-10.35 80.02-8.06L80.02-8.06Q80.02-5.62 78.56-3.69 77.09-1.76 74.46-0.66 71.82 0.44 68.31 0.44ZM109.03-26.42L106.54-25.68 96.33-9.47 98.14-13.87 98.14-9.08Q98.14-7.86 98.16-6.81 98.19-5.76 98.21-4.96 98.23-4.15 98.31-3.64 98.38-3.13 98.43-2.98L98.43-2.98 101.85-2.29 101.7 0 88.81 0 88.66-2.29 92.08-2.98Q92.13-3.13 92.18-3.64 92.23-4.15 92.28-4.96 92.33-5.76 92.35-6.81 92.38-7.86 92.38-9.08L92.38-9.08 92.38-13.87 93.74-9.47 84.03-25.68 81.54-26.42 81.68-28.66 93.64-28.66 93.79-26.42 90.76-25.68 97.31-14.7 96.28-14.7 102.68-25.68 99.26-26.42 99.41-28.66 108.88-28.66 109.03-26.42ZM120.3 0.44L120.3 0.44Q118.2 0.44 115.81-0.12 113.42-0.68 111.76-1.61L111.76-1.61 111.51-8.54 114.3-8.74 115.91-3.96Q116.98-3.22 118.35-2.86 119.72-2.49 120.99-2.49L120.99-2.49Q123.28-2.49 124.53-3.49 125.77-4.49 125.77-6.2L125.77-6.2Q125.77-7.91 124.75-8.98 123.72-10.06 122.11-10.84 120.5-11.62 118.69-12.35 116.88-13.09 115.27-14.11 113.66-15.14 112.64-16.7 111.61-18.26 111.61-20.65L111.61-20.65Q111.61-23.19 113.05-25.12 114.49-27.05 117.08-28.13 119.67-29.2 123.09-29.2L123.09-29.2Q124.26-29.2 125.53-29.05 126.8-28.91 127.97-28.61 129.14-28.32 130.02-27.93L130.02-27.93 130.51-21.14 127.72-20.95 126.21-25.49Q124.65-26.37 122.6-26.37L122.6-26.37Q120.4-26.37 119.06-25.29 117.71-24.22 117.71-22.36L117.71-22.36Q117.71-20.7 118.74-19.6 119.77-18.51 121.4-17.7 123.04-16.89 124.87-16.14 126.7-15.38 128.33-14.38 129.97-13.38 131-11.87 132.02-10.35 132.02-8.06L132.02-8.06Q132.02-5.62 130.56-3.69 129.09-1.76 126.45-0.66 123.82 0.44 120.3 0.44ZM142.37 0L133.39 0 133.24-2.25 135.73-2.98 145.69-27.44 149.35-29.54 160.44-2.98 162.93-2.25 162.78 0 150.77 0 150.62-2.25 153.7-2.98 150.96-9.62 150.43-11.23 145.4-23.29 146.72-23.24 142.32-11.33 141.83-9.86 139.44-2.98 142.52-2.25 142.37 0ZM140.81-8.54L140.81-8.54 140.81-11.62Q141.74-11.57 143.08-11.5 144.42-11.43 146.52-11.43L146.52-11.43Q148.57-11.43 149.96-11.5 151.35-11.57 152.23-11.62L152.23-11.62 152.23-8.59Q151.06-8.59 149.67-8.64 148.28-8.69 146.52-8.69L146.52-8.69Q144.76-8.69 143.4-8.64 142.03-8.59 140.81-8.54ZM178.35 0.15L175.91 0.15 164.83-25.68 162.34-26.46 162.49-28.66 174.45-28.66 174.59-26.42 171.57-25.68 179.77-5.96 178.06-5.96 185.58-25.68 182.16-26.42 182.31-28.66 192.03-28.66 192.17-26.46 189.68-25.68 178.35 0.15ZM218.93-7.37L216.78 0.29Q215.46 0.15 213.75 0.07 212.04 0 210.68 0L210.68 0 193.88 0 193.73-2.25 196.81-2.98Q196.91-3.22 196.98-4.2 197.05-5.18 197.1-6.76 197.15-8.35 197.15-10.4L197.15-10.4 197.15-18.21Q197.15-20.31 197.1-21.92 197.05-23.54 196.98-24.51 196.91-25.49 196.81-25.68L196.81-25.68 193.73-26.42 193.88-28.66 209.16-28.66Q210.04-28.66 211.24-28.69 212.43-28.71 213.63-28.78 214.83-28.86 215.75-28.91L215.75-28.91 216.93-21.92 214.29-21.58 212.53-25.78Q211.95-25.88 211.46-25.93 210.97-25.98 210.38-25.98L210.38-25.98 206.13-25.98Q205.21-25.98 204.4-25.95 203.6-25.93 203.01-25.83L203.01-25.83Q203.01-25.54 202.99-24.71 202.96-23.88 202.94-22.66 202.91-21.44 202.91-19.97L202.91-19.97 202.91-8.79Q202.91-7.37 202.94-6.23 202.96-5.08 202.99-4.27 203.01-3.47 203.01-3.08L203.01-3.08Q203.84-2.98 204.72-2.93 205.6-2.88 206.92-2.88L206.92-2.88 210.19-2.88Q211.41-2.88 212.04-2.91 212.68-2.93 213-2.98 213.31-3.03 213.65-3.08L213.65-3.08 216.34-7.86 218.93-7.37ZM213.31-9.86L210.77-9.86 210.29-13.13Q209.94-13.18 209.26-13.23 208.58-13.28 207.65-13.28L207.65-13.28 204.77-13.28Q203.99-13.28 203.23-13.23 202.47-13.18 201.94-13.13L201.94-13.13 201.94-16.31Q202.47-16.26 203.23-16.24 203.99-16.21 204.77-16.21L204.77-16.21 207.65-16.21Q208.58-16.21 209.26-16.24 209.94-16.26 210.29-16.26L210.29-16.26 210.77-19.58 213.31-19.58 213.31-9.86Z" fill="#454545" data-fill-palette-color="primary"></path></g></svg></g></svg></g><g transform="matrix(1,0,0,1,75.54432,68.59693021601463)"><svg viewBox="0 0 244.43135999999998 28.405536466376883" height="28.405536466376883" width="244.43135999999998"><g transform="matrix(1,0,0,1,0,0)"><svg width="244.43135999999998" viewBox="2.390000104904175 -33.25 381.8899841308594 44.380001068115234" height="28.405536466376883" data-palette-color="#454545"><path d="M11.18 0.44L11.18 0.44Q9.08 0.44 6.69-0.12 4.3-0.68 2.64-1.61L2.64-1.61 2.39-8.54 5.18-8.74 6.79-3.96Q7.86-3.22 9.23-2.86 10.6-2.49 11.87-2.49L11.87-2.49Q14.16-2.49 15.41-3.49 16.65-4.49 16.65-6.2L16.65-6.2Q16.65-7.91 15.63-8.98 14.6-10.06 12.99-10.84 11.38-11.62 9.57-12.35 7.76-13.09 6.15-14.11 4.54-15.14 3.52-16.7 2.49-18.26 2.49-20.65L2.49-20.65Q2.49-23.19 3.93-25.12 5.37-27.05 7.96-28.13 10.55-29.2 13.96-29.2L13.96-29.2Q15.14-29.2 16.41-29.05 17.68-28.91 18.85-28.61 20.02-28.32 20.9-27.93L20.9-27.93 21.39-21.14 18.6-20.95 17.09-25.49Q15.53-26.37 13.48-26.37L13.48-26.37Q11.28-26.37 9.94-25.29 8.59-24.22 8.59-22.36L8.59-22.36Q8.59-20.7 9.62-19.6 10.64-18.51 12.28-17.7 13.92-16.89 15.75-16.14 17.58-15.38 19.21-14.38 20.85-13.38 21.88-11.87 22.9-10.35 22.9-8.06L22.9-8.06Q22.9-5.62 21.44-3.69 19.97-1.76 17.33-0.66 14.7 0.44 11.18 0.44ZM33.49 0.39L33.49 0.39Q31.3 0.39 29.71-0.54 28.12-1.46 27.29-2.78 26.46-4.1 26.46-5.32L26.46-5.32Q26.46-7.03 27.54-8.18 28.61-9.33 30.95-10.06L30.95-10.06 38.57-12.4 38.57-14.4Q38.57-15.48 37.89-16.41 37.2-17.33 36.08-17.92 34.96-18.51 33.64-18.51L33.64-18.51Q32.71-18.51 32.35-18.09 31.98-17.68 31.88-16.46L31.88-16.46 31.69-13.82Q29.49-13.33 28.05-13.94 26.61-14.55 26.61-15.97L26.61-15.97Q26.61-16.85 27.49-17.77 28.37-18.7 29.71-19.53 31.05-20.36 32.52-20.95 33.98-21.53 35.2-21.68L35.2-21.68Q39.35-21.68 41.77-19.73 44.19-17.77 44.24-14.5L44.24-14.5 44.09-7.32Q44.09-6.05 44.16-5.25 44.24-4.44 44.43-3.96L44.43-3.96 47.6-3.37 47.6-1.51 44.72-0.29Q43.89 0.05 43.19 0.22 42.48 0.39 41.89 0.39L41.89 0.39Q40.13 0.39 39.45-1.46L39.45-1.46 38.72-3.61 39.65-3.42Q38.13-1.61 36.57-0.61 35.01 0.39 33.49 0.39ZM35.59-3.56L35.59-3.56Q36.42-3.56 37.18-3.88 37.94-4.2 38.57-4.93L38.57-4.93 38.57-9.81 34.57-8.94Q33.4-8.69 32.88-8.11 32.37-7.52 32.37-6.54L32.37-6.54Q32.37-5.37 33.32-4.47 34.27-3.56 35.59-3.56ZM60.69 0.2L58.78 0.2 49.9-18.41 47.6-19.19 47.7-21.29 59.22-21.29 59.37-19.19 56.34-18.41 62.25-5.57 60.83-5.57 66.3-18.41 63.28-19.19 63.42-21.29 72.07-21.29 72.16-19.19 69.87-18.41 60.69 0.2ZM85.25 0L72.89 0 72.75-2.15 76.02-2.88Q76.07-3.08 76.12-3.71 76.16-4.35 76.21-5.4 76.26-6.45 76.26-7.86L76.26-7.86 76.31-11.57Q76.31-13.09 76.21-14.38 76.12-15.67 75.87-16.8L75.87-16.8 72.6-17.48 72.6-19.48 81-21.58 82.12-20.75Q81.97-19.24 81.9-17.7 81.83-16.16 81.83-14.16L81.83-14.16 81.83-8.01Q81.83-6.2 81.9-4.74 81.97-3.27 82.12-2.88L82.12-2.88 85.39-2.15 85.25 0ZM79.09-26.12L79.09-26.12Q77.39-26.12 76.36-27.17 75.33-28.22 75.33-29.69L75.33-29.69Q75.33-31.1 76.36-32.18 77.39-33.25 79.09-33.25L79.09-33.25Q80.8-33.25 81.78-32.18 82.76-31.1 82.76-29.69L82.76-29.69Q82.76-28.22 81.78-27.17 80.8-26.12 79.09-26.12ZM98.92 0L87.1 0 86.95-2.1 89.98-2.88Q90.03-3.08 90.08-3.69 90.13-4.3 90.18-5.35 90.22-6.4 90.22-7.86L90.22-7.86 90.27-11.57Q90.27-13.13 90.18-14.4 90.08-15.67 89.83-16.8L89.83-16.8 86.71-17.48 86.71-19.48 94.72-21.58 95.89-20.75 95.6-18.02 95.74-17.97Q97.3-19.82 99.09-20.75 100.87-21.68 102.87-21.68L102.87-21.68Q104.87-21.68 106.51-20.68 108.14-19.68 109.12-17.72 110.1-15.77 110.1-12.94L110.1-12.94 110.1-7.86Q110.1-6.2 110.15-4.76 110.2-3.32 110.34-2.88L110.34-2.88 113.37-2.1 113.22 0 101.7 0 101.55-2.1 104.38-2.88Q104.48-3.27 104.53-4 104.58-4.74 104.6-5.71 104.63-6.69 104.63-7.71L104.63-7.71 104.63-12.21Q104.63-14.11 104.02-15.31 103.41-16.5 102.43-17.07 101.45-17.63 100.28-17.63L100.28-17.63Q98.92-17.63 97.77-17.02 96.62-16.41 95.74-15.23L95.74-15.23 95.74-8.01Q95.74-6.15 95.82-4.71 95.89-3.27 96.03-2.88L96.03-2.88 99.06-2.1 98.92 0ZM125.62 11.13L125.62 11.13Q120.69 11.13 117.88 9.69 115.08 8.25 115.08 5.81L115.08 5.81Q115.08 4.15 116.64 2.76 118.2 1.37 121.18 0.29L121.18 0.29 123.23 0.59Q121.91 1.46 121.18 2.59 120.45 3.71 120.45 4.98L120.45 4.98Q120.45 6.69 121.89 7.67 123.33 8.64 126.01 8.64L126.01 8.64Q128.84 8.64 130.68 7.42 132.51 6.2 132.51 4.35L132.51 4.35Q132.51 2.98 131.51 2.29 130.51 1.61 128.11 1.42L128.11 1.42 122.3 0.93 121.76 0.68Q119.52 0.68 118.18-0.24 116.83-1.17 116.83-2.69L116.83-2.69Q116.83-4.15 118.3-5.47 119.76-6.79 122.3-7.62L122.3-7.62 123.03-6.74Q122.35-6.3 122.01-5.86 121.67-5.42 121.67-4.98L121.67-4.98Q121.67-4.39 122.08-4.03 122.5-3.66 123.33-3.56L123.33-3.56 130.41-2.88Q134.02-2.54 135.8-1.03 137.59 0.49 137.59 3.03L137.59 3.03Q137.59 5.27 136.02 7.13 134.46 8.98 131.75 10.06 129.04 11.13 125.62 11.13ZM125.92-5.86L125.92-5.86Q123.08-5.86 120.93-6.84 118.79-7.81 117.59-9.55 116.39-11.28 116.39-13.53L116.39-13.53Q116.39-15.92 117.66-17.75 118.93-19.58 121.11-20.65 123.28-21.73 126.01-21.73L126.01-21.73Q128.7-21.73 130.82-20.65 132.95-19.58 134.17-17.77 135.39-15.97 135.39-13.67L135.39-13.67Q135.39-11.43 134.17-9.64 132.95-7.86 130.8-6.86 128.65-5.86 125.92-5.86ZM126.26-8.4L126.26-8.4Q127.92-8.4 128.89-9.77 129.87-11.13 129.87-13.48L129.87-13.48Q129.87-16.06 128.8-17.63 127.72-19.19 125.96-19.19L125.96-19.19Q124.35-19.19 123.33-17.72 122.3-16.26 122.3-13.87L122.3-13.87Q122.3-11.43 123.4-9.91 124.5-8.4 126.26-8.4ZM138.17-21.19L138.17-17.53 131.77-18.12 130.02-20.26 138.17-21.19ZM161.7 0L149.35 0 149.2-2.15 152.47-2.88Q152.52-3.08 152.57-3.71 152.62-4.35 152.67-5.4 152.72-6.45 152.72-7.86L152.72-7.86 152.77-11.57Q152.77-13.09 152.67-14.38 152.57-15.67 152.33-16.8L152.33-16.8 149.05-17.48 149.05-19.48 157.45-21.58 158.58-20.75Q158.43-19.24 158.36-17.7 158.28-16.16 158.28-14.16L158.28-14.16 158.28-8.01Q158.28-6.2 158.36-4.74 158.43-3.27 158.58-2.88L158.58-2.88 161.85-2.15 161.7 0ZM155.55-26.12L155.55-26.12Q153.84-26.12 152.81-27.17 151.79-28.22 151.79-29.69L151.79-29.69Q151.79-31.1 152.81-32.18 153.84-33.25 155.55-33.25L155.55-33.25Q157.26-33.25 158.23-32.18 159.21-31.1 159.21-29.69L159.21-29.69Q159.21-28.22 158.23-27.17 157.26-26.12 155.55-26.12ZM171.95 0.39L171.95 0.39Q170 0.39 168.05-0.05 166.09-0.49 164.77-1.22L164.77-1.22 164.53-6.79 167.41-6.79 168.44-3.27Q170.19-2.15 172.29-2.15L172.29-2.15Q173.86-2.15 174.74-2.83 175.61-3.52 175.61-4.64L175.61-4.64Q175.61-5.81 174.74-6.64 173.86-7.47 171.17-8.5L171.17-8.5Q167.61-9.86 166.19-11.38 164.77-12.89 164.77-15.19L164.77-15.19Q164.77-17.09 165.95-18.55 167.12-20.02 169.19-20.85 171.27-21.68 174-21.68L174-21.68Q175.52-21.68 177.08-21.41 178.64-21.14 179.67-20.65L179.67-20.65 180.2-15.19 177.32-15.19 176.2-18.6Q175.71-18.9 175.03-19.07 174.35-19.24 173.66-19.24L173.66-19.24Q172.1-19.24 171.17-18.53 170.24-17.82 170.24-16.7L170.24-16.7Q170.24-15.48 171.34-14.65 172.44-13.82 175.27-12.6L175.27-12.6Q178.5-11.23 179.84-9.77 181.18-8.3 181.18-6.15L181.18-6.15Q181.18-3.22 178.59-1.42 176.01 0.39 171.95 0.39ZM204.86 0L193.04 0 192.89-2.1 195.92-2.88Q195.97-3.08 196.02-3.69 196.07-4.3 196.12-5.35 196.17-6.4 196.17-7.86L196.17-7.86 196.22-11.57Q196.22-13.13 196.12-14.4 196.02-15.67 195.78-16.8L195.78-16.8 192.65-17.48 192.65-19.48 200.66-21.58 201.83-20.75 201.54-18.02 201.68-17.97Q203.25-19.82 205.03-20.75 206.81-21.68 208.81-21.68L208.81-21.68Q210.81-21.68 212.45-20.68 214.09-19.68 215.06-17.72 216.04-15.77 216.04-12.94L216.04-12.94 216.04-7.86Q216.04-6.2 216.09-4.76 216.14-3.32 216.28-2.88L216.28-2.88 219.31-2.1 219.16 0 207.64 0 207.49-2.1 210.33-2.88Q210.42-3.27 210.47-4 210.52-4.74 210.55-5.71 210.57-6.69 210.57-7.71L210.57-7.71 210.57-12.21Q210.57-14.11 209.96-15.31 209.35-16.5 208.37-17.07 207.4-17.63 206.23-17.63L206.23-17.63Q204.86-17.63 203.71-17.02 202.56-16.41 201.68-15.23L201.68-15.23 201.68-8.01Q201.68-6.15 201.76-4.71 201.83-3.27 201.98-2.88L201.98-2.88 205-2.1 204.86 0ZM232.98 0.39L232.98 0.39Q229.66 0.39 227.15-1 224.63-2.39 223.21-4.86 221.8-7.32 221.8-10.5L221.8-10.5Q221.8-13.96 223.39-16.48 224.97-18.99 227.58-20.34 230.2-21.68 233.18-21.68L233.18-21.68Q236.35-21.68 238.77-20.31 241.18-18.95 242.53-16.5 243.87-14.06 243.87-10.89L243.87-10.89Q243.87-7.71 242.4-5.15 240.94-2.59 238.47-1.1 236.01 0.39 232.98 0.39ZM233.47-2.44L233.47-2.44Q234.84-2.44 235.81-3.3 236.79-4.15 237.33-5.76 237.86-7.37 237.86-9.52L237.86-9.52Q237.86-13.72 236.4-16.36 234.93-18.99 232.49-18.99L232.49-18.99Q230.39-18.99 229.15-16.99 227.9-14.99 227.9-11.67L227.9-11.67Q227.9-9.03 228.63-6.93 229.37-4.83 230.61-3.64 231.86-2.44 233.47-2.44ZM273.11 0.2L271.16 0.2 263.01-18.41 260.61-19.19 260.76-21.29 271.7-21.29 271.8-19.19 269.26-18.41 274.48-5.57 273.16-5.57 278.63-18.41 276.09-19.19 276.19-21.29 284.3-21.29 284.39-19.19 282.1-18.41 273.11 0.2ZM257.98 0.2L256.07 0.2 247.68-18.41 245.38-19.19 245.48-21.29 256.42-21.29 256.51-19.19 254.12-18.41 259.64-5.57 258.12-5.57 264.03-18.55 265.74-15.43 257.98 0.2ZM306.07 0.39L306.07 0.39Q303.04 0.39 300.62-0.98 298.21-2.34 296.84-4.76 295.47-7.18 295.47-10.3L295.47-10.3Q295.47-13.72 296.99-16.28 298.5-18.85 300.94-20.29 303.38-21.73 306.17-21.68L306.17-21.68Q310.41-21.63 312.66-18.99 314.91-16.36 314.91-12.11L314.91-12.11 314.91-11.04 300.45-11.04 300.45-13.48 310.61-13.48 309.93-12.45 309.93-13.92Q309.93-16.36 308.83-17.77 307.73-19.19 305.78-19.19L305.78-19.19Q304.51-19.19 303.46-18.46 302.41-17.72 301.77-16.26 301.14-14.79 301.14-12.6L301.14-12.6 301.14-11.72Q301.14-8.11 303.02-5.98 304.9-3.86 308.02-3.86L308.02-3.86Q309.68-3.86 311.02-4.47 312.37-5.08 313.69-6.54L313.69-6.54 315.1-5.27Q313.73-2.44 311.34-1.03 308.95 0.39 306.07 0.39ZM325.65 0.39L325.65 0.39Q323.45 0.39 321.86-0.54 320.28-1.46 319.44-2.78 318.61-4.1 318.61-5.32L318.61-5.32Q318.61-7.03 319.69-8.18 320.76-9.33 323.11-10.06L323.11-10.06 330.72-12.4 330.72-14.4Q330.72-15.48 330.04-16.41 329.36-17.33 328.23-17.92 327.11-18.51 325.79-18.51L325.79-18.51Q324.86-18.51 324.5-18.09 324.13-17.68 324.03-16.46L324.03-16.46 323.84-13.82Q321.64-13.33 320.2-13.94 318.76-14.55 318.76-15.97L318.76-15.97Q318.76-16.85 319.64-17.77 320.52-18.7 321.86-19.53 323.2-20.36 324.67-20.95 326.13-21.53 327.36-21.68L327.36-21.68Q331.51-21.68 333.92-19.73 336.34-17.77 336.39-14.5L336.39-14.5 336.24-7.32Q336.24-6.05 336.32-5.25 336.39-4.44 336.58-3.96L336.58-3.96 339.76-3.37 339.76-1.51 336.88-0.29Q336.05 0.05 335.34 0.22 334.63 0.39 334.04 0.39L334.04 0.39Q332.29 0.39 331.6-1.46L331.6-1.46 330.87-3.61 331.8-3.42Q330.28-1.61 328.72-0.61 327.16 0.39 325.65 0.39ZM327.75-3.56L327.75-3.56Q328.58-3.56 329.33-3.88 330.09-4.2 330.72-4.93L330.72-4.93 330.72-9.81 326.72-8.94Q325.55-8.69 325.04-8.11 324.52-7.52 324.52-6.54L324.52-6.54Q324.52-5.37 325.48-4.47 326.43-3.56 327.75-3.56ZM349.76 0.39L349.76 0.39Q347.81 0.39 345.86-0.05 343.91-0.49 342.59-1.22L342.59-1.22 342.34-6.79 345.22-6.79 346.25-3.27Q348.01-2.15 350.11-2.15L350.11-2.15Q351.67-2.15 352.55-2.83 353.43-3.52 353.43-4.64L353.43-4.64Q353.43-5.81 352.55-6.64 351.67-7.47 348.98-8.5L348.98-8.5Q345.42-9.86 344-11.38 342.59-12.89 342.59-15.19L342.59-15.19Q342.59-17.09 343.76-18.55 344.93-20.02 347.01-20.85 349.08-21.68 351.82-21.68L351.82-21.68Q353.33-21.68 354.89-21.41 356.45-21.14 357.48-20.65L357.48-20.65 358.02-15.19 355.14-15.19 354.01-18.6Q353.52-18.9 352.84-19.07 352.16-19.24 351.47-19.24L351.47-19.24Q349.91-19.24 348.98-18.53 348.06-17.82 348.06-16.7L348.06-16.7Q348.06-15.48 349.15-14.65 350.25-13.82 353.09-12.6L353.09-12.6Q356.31-11.23 357.65-9.77 358.99-8.3 358.99-6.15L358.99-6.15Q358.99-3.22 356.41-1.42 353.82 0.39 349.76 0.39ZM374.32-5.57L370.86 0.2 362.02-18.41 359.72-19.19 359.87-21.29 371.34-21.29 371.49-19.19 368.46-18.41 374.32-5.57ZM375.54-21.29L384.14-21.29 384.28-19.19 381.99-18.41 373.49-1.42 369.64 6.69Q368.41 9.23 367.12 10.18 365.83 11.13 364.26 11.13L364.26 11.13Q362.75 11.13 361.85 10.4 360.94 9.67 360.94 8.59L360.94 8.59Q360.94 7.62 361.73 6.79 362.51 5.96 364.07 5.52L364.07 5.52 369.44 4 366.46 6.3 372.27-4.49 372.86-5.57 378.42-18.41 375.4-19.19 375.54-21.29Z" opacity="1" transform="matrix(1,0,0,1,0,0)" fill="#454545" class="undefined-text-1" data-fill-palette-color="secondary" id="text-1"></path></svg></g></svg></g></svg></g></svg></g><g transform="matrix(1,0,0,1,82.67965788431431,0)"><svg viewBox="0 0 230.16068423137136 230.16068423137136" height="230.16068423137136" width="230.16068423137136"><g><svg></svg></g><g id="icon-0"><svg viewBox="0 0 230.16068423137136 230.16068423137136" height="230.16068423137136" width="230.16068423137136"><g><path d="M0 115.08c0-63.557 51.523-115.08 115.08-115.08 63.557 0 115.08 51.523 115.081 115.08 0 63.557-51.523 115.08-115.081 115.081-63.557 0-115.08-51.523-115.08-115.081zM115.08 225.156c60.793 0 110.076-49.283 110.076-110.076 0-60.793-49.283-110.076-110.076-110.075-60.793 0-110.076 49.283-110.075 110.075 0 60.793 49.283 110.076 110.075 110.076z" data-fill-palette-color="accent" fill="#454545" stroke="transparent"></path></g><g transform="matrix(1,0,0,1,58.69836599972339,45.88703551278675)"><svg viewBox="0 0 112.76395223192458 138.38661320579786" height="138.38661320579786" width="112.76395223192458"><g><svg xmlns="http://www.w3.org/2000/svg" xmlns:xlink="http://www.w3.org/1999/xlink" version="1.1" x="0" y="0" viewBox="20.799999237060547 14 58.669002532958984 72" enable-background="new 0 0 100 100" xml:space="preserve" height="138.38661320579786" width="112.76395223192458" class="icon-a-0" data-fill-palette-color="accent" id="a-0"><g fill="#454545" data-fill-palette-color="accent"><polygon points="65.069,28.4 79.469,28.4 65.069,14  " fill="#454545" data-fill-palette-color="accent"></polygon></g><polygon points="65.069,29.12 64.349,29.12 64.349,28.4 64.349,14 25.469,14 25.469,61.459 56.8,61.459 57.52,61.459 57.52,62.179   57.52,79.279 57.52,79.999 56.8,79.999 25.469,79.999 25.469,86 79.469,86 79.469,29.12 " fill="#454545" data-fill-palette-color="accent"></polygon><rect x="20.8" y="62.179" width="36" height="17.1" fill="#454545" data-fill-palette-color="accent"></rect></svg></g></svg></g></svg></g></svg></g><g></g></svg></g><defs></defs></svg><rect width="276.689505435295" height="247.2" fill="none" stroke="none" visibility="hidden"></rect></g></svg></g></svg>